<svg width="249" height="83" viewBox="0 0 249 83" fill="none" xmlns="http://www.w3.org/2000/svg">
<g clip-path="url(#clip0_1501_504)">
<path d="M32.693 26.3584V16.5764H19.6004V0.304688H9.92263V16.5764H0V26.3584H9.92263V51.3554C9.92263 56.4951 11.1531 60.3454 13.6141 62.9062C16.0751 65.4669 19.6306 66.7503 24.2805 66.7564C25.7622 66.7601 27.2414 66.6372 28.7022 66.3891C30.0297 66.1725 31.3361 65.8417 32.6068 65.4004L32.2939 57.3916C31.3958 57.7926 30.4513 58.0805 29.4822 58.2487C28.5223 58.4316 27.5478 58.5272 26.5707 58.5344C24.152 58.5344 22.3834 57.895 21.2647 56.6161C20.1461 55.3372 19.5913 53.2103 19.6004 50.2353V26.3584H32.693Z" fill="#0A4BC6"/>
<path d="M218.038 41.2695C218.045 35.0939 215.85 29.118 211.849 24.414C207.848 19.71 202.301 16.5856 196.205 15.6015C190.108 14.6174 183.86 15.8378 178.582 19.044C173.304 22.2501 169.341 27.2321 167.404 33.0961C165.467 38.9601 165.683 45.3223 168.014 51.0414C170.344 56.7605 174.635 61.4622 180.119 64.3029C185.602 67.1436 191.919 67.9375 197.934 66.542C203.95 65.1466 209.272 61.6532 212.945 56.6886L205.494 50.7295C203.628 53.3764 201.021 55.4126 198.001 56.5825C194.981 57.7525 191.683 58.0038 188.521 57.3051C185.359 56.6063 182.473 54.9886 180.228 52.6552C177.982 50.3218 176.476 47.3767 175.898 44.19H217.866C217.977 43.2205 218.035 42.2454 218.038 41.2695ZM192.07 24.8028C195.538 24.8063 198.917 25.9047 201.724 27.9414C204.531 29.9781 206.623 32.849 207.703 36.1449H176.443C177.523 32.8505 179.615 29.9809 182.421 27.9445C185.227 25.9081 188.603 24.8087 192.07 24.8028Z" fill="#0A4BC6"/>
<path d="M118.32 15.1875C112.26 15.1789 106.389 17.2974 101.731 21.1738V16.539H91.9492V82.3648H101.731V61.1953C104.944 63.858 108.75 65.7084 112.828 66.5901C116.906 67.4717 121.136 67.3588 125.161 66.2607C129.187 65.1627 132.889 63.1119 135.954 60.2816C139.02 57.4512 141.359 53.9246 142.774 49.9996C144.189 46.0746 144.639 41.8666 144.085 37.7312C143.531 33.5958 141.99 29.6544 139.592 26.2403C137.193 22.8261 134.009 20.0394 130.306 18.1156C126.604 16.1918 122.493 15.1875 118.32 15.1875ZM118.32 57.658C115.062 57.6589 111.876 56.6934 109.166 54.8836C106.456 53.0737 104.343 50.5009 103.096 47.4904C101.848 44.4799 101.521 41.1671 102.156 37.9708C102.791 34.7745 104.36 31.8384 106.664 29.5338C108.968 27.2292 111.904 25.6595 115.1 25.0234C118.296 24.3874 121.609 24.7134 124.62 25.9602C127.631 27.2071 130.204 29.3189 132.015 32.0284C133.825 34.7379 134.792 37.9235 134.792 41.1823C134.787 45.5497 133.05 49.7369 129.962 52.8255C126.874 55.9141 122.688 57.652 118.32 57.658Z" fill="#0A4BC6"/>
<path d="M66.0196 16.3887C60.0232 16.3799 54.2096 18.4524 49.5711 22.2525V16.5384H39.7891V65.8885H49.5711V41.481C49.8084 37.2771 51.644 33.3229 54.702 30.4285C57.76 27.534 61.809 25.9183 66.0196 25.9122C66.6668 25.9148 67.3134 25.9542 67.9561 26.0302V16.4703C67.3167 16.4204 66.6636 16.3887 66.0196 16.3887Z" fill="#0A4BC6"/>
<path d="M84.8328 65.8892H75.0508V16.5391H84.8328V65.8892Z" fill="#0A4BC6"/>
<path d="M79.9374 10.9294C82.9554 10.9294 85.4021 8.48278 85.4021 5.4647C85.4021 2.44663 82.9554 0 79.9374 0C76.9193 0 74.4727 2.44663 74.4727 5.4647C74.4727 8.48278 76.9193 10.9294 79.9374 10.9294Z" fill="#0A4BC6"/>
<path d="M160.085 65.8884H150.285V0.0625H160.085V65.8884Z" fill="#0A4BC6"/>
<path d="M242.125 29.0021C245.922 29.0021 249 25.9241 249 22.127C249 18.33 245.922 15.252 242.125 15.252C238.328 15.252 235.25 18.33 235.25 22.127C235.25 25.9241 238.328 29.0021 242.125 29.0021Z" fill="#3E7DF4"/>
<path d="M242.125 48.1662C245.922 48.1662 249 45.0881 249 41.2911C249 37.4941 245.922 34.416 242.125 34.416C238.328 34.416 235.25 37.4941 235.25 41.2911C235.25 45.0881 238.328 48.1662 242.125 48.1662Z" fill="#0A4BC6"/>
<path d="M242.125 67.3322C245.922 67.3322 249 64.2541 249 60.4571C249 56.6601 245.922 53.582 242.125 53.582C238.328 53.582 235.25 56.6601 235.25 60.4571C235.25 64.2541 238.328 67.3322 242.125 67.3322Z" fill="#173B7E"/>
</g>
<defs>
<clipPath id="clip0_1501_504">
<rect width="249" height="83" fill="white"/>
</clipPath>
</defs>
</svg>
